<svg width="21" height="32" viewBox="0 0 21 32" fill="none" xmlns="http://www.w3.org/2000/svg">
<path d="M1.58623 6.81463L6.2718 1.83621C6.89246 1.17676 8 1.61599 8 2.52158V7.5C8 8.05229 7.55228 8.5 7 8.5H2.31443C1.43805 8.5 0.985593 7.45281 1.58623 6.81463Z" fill="#B6D38E"/>
<path d="M0 30.5V12.5C0 11.9477 0.447715 11.5 1 11.5H9.5C10.0523 11.5 10.5 11.0523 10.5 10.5V1C10.5 0.447715 10.9477 0 11.5 0H20C20.5523 0 21 0.447715 21 1V30.5C21 31.0523 20.5523 31.5 20 31.5H1C0.447715 31.5 0 31.0523 0 30.5Z" fill="#B6D38E"/>
</svg>
