<svg width="18" height="30" viewBox="0 0 18 30" fill="none" xmlns="http://www.w3.org/2000/svg">
<path d="M0 9.22711C0 10.3317 0.895431 11.2271 2 11.2271C3.10457 11.2271 4 10.3317 4 9.22711H0ZM6.50002 22.0001C6.50002 23.1046 7.39545 24.0001 8.50002 24.0001C9.60459 24.0001 10.5 23.1046 10.5 22.0001H6.50002ZM10.5 27.5001C10.5 26.3955 9.60459 25.5001 8.50002 25.5001C7.39545 25.5001 6.50002 26.3955 6.50002 27.5001H10.5ZM6.50002 28.0001C6.50002 29.1046 7.39545 30.0001 8.50002 30.0001C9.60459 30.0001 10.5 29.1046 10.5 28.0001H6.50002ZM4 9.22711C4 8.16522 4.30447 6.77739 5.02719 5.71798C5.68425 4.7548 6.7121 4 8.50002 4V0C5.28795 0 3.06579 1.4952 1.72284 3.4638C0.445543 5.33617 0 7.56189 0 9.22711H4ZM8.50002 4C10.7141 4 12.0108 4.77949 12.7858 5.69528C13.6108 6.67031 14 7.99034 14 9.22711H18C18 7.23676 17.3893 4.94324 15.8393 3.11149C14.2392 1.22051 11.786 0 8.50002 0V4ZM14 9.22711C14 11.4602 12.4459 12.9821 11.2506 13.9383L13.7494 17.0617C15.0542 16.0179 18 13.4482 18 9.22711H14ZM11.2506 13.9383C8.60544 16.0544 6.50002 18.5689 6.50002 22.0001H10.5C10.5 20.4312 11.3946 18.9456 13.7494 17.0617L11.2506 13.9383ZM6.50002 27.5001V28.0001H10.5V27.5001H6.50002Z" fill="#B6D38E"/>
</svg>
